Coordinates
version=1
nRows=5
nColumns=42
inDegrees=yes

Units are S.I. units (second, meters, Newtons, ...)
If the header above contains a line with 'inDegrees', this indicates whether rotational values are in degrees (yes) or radians (no).

endheader
time	pelvis_tilt	pelvis_list	pelvis_rotation	pelvis_tx	pelvis_ty	pelvis_tz	hip_flexion_r	hip_adduction_r	hip_rotation_r	knee_angle_r	knee_adduction_r	knee_angle_r_beta	ankle_angle_r	subtalar_angle_r	mtp_angle_r	hip_flexion_l	hip_adduction_l	hip_rotation_l	knee_angle_l	knee_adduction_l	knee_angle_l_beta	ankle_angle_l	subtalar_angle_l	mtp_angle_l	lumbar_extension	lumbar_bending	lumbar_rotation	arm_flex_r	arm_add_r	arm_rot_r	elbow_flex_r	pro_sup_r	wrist_flex_r	wrist_dev_r	arm_flex_l	arm_add_l	arm_rot_l	elbow_flex_l	pro_sup_l	wrist_flex_l	wrist_dev_l
      0.45000000	     -3.15090456	     -3.50584008	     -4.30161043	     -0.43716195	      0.93343675	     -0.22381883	    -10.56215362	      5.88420341	     -4.32956091	     20.00556627	     -2.83639663	      0.34916300	     18.06542756	     -0.14813414	     -9.38147739	     33.72404309	     -4.51913024	    -10.97061952	     16.00865896	     -2.06037281	      0.27940381	     -0.93519160	     -5.09528207	     -9.38147739	     -8.87437574	      2.74596710	     10.77565755	      1.79014362	    -10.93447025	      2.06597783	     44.42524346	     90.00000001	      0.00000000	      0.00000000	     -4.36608717	     -8.54018083	     -9.51574063	     21.92583667	     90.00000001	      0.00000000	      0.00000000
      0.46000000	     -3.18584117	     -2.96565242	     -4.34612251	     -0.42118454	      0.93282612	     -0.22413684	    -10.52387433	      5.20161198	     -3.85031899	     21.88001966	     -2.84979581	      0.38187838	     16.56577589	     -1.60222724	     -9.04237882	     33.71337852	     -3.72150330	    -10.30269063	     17.48224232	     -2.32300260	      0.30512269	     -2.07483316	     -6.93527745	     -9.04237882	     -8.69788071	      1.88767476	     10.61901764	      1.74339897	    -10.33755742	      1.22906958	     43.92159524	     90.00000001	      0.00000000	      0.00000000	     -4.19569165	     -8.28354371	    -12.73443371	     20.73452335	     90.00000001	      0.00000000	      0.00000000
      0.47000000	     -3.09542931	     -2.31302776	     -4.34370956	     -0.40493226	      0.93264326	     -0.22463274	    -10.34585726	      4.33419930	     -3.93390775	     24.16975641	     -2.97864016	      0.42184183	     14.91203282	     -2.24038325	     -9.02117930	     33.63264016	     -2.84702277	    -10.25966213	     19.16985091	     -2.67271524	      0.33457702	     -2.69553091	     -7.56232299	     -9.02117930	     -8.62951265	      0.91242315	     10.34433652	      1.61446049	     -9.97555681	      1.19085662	     43.53636007	     90.00000001	      0.00000000	      0.00000000	     -4.51301287	     -8.46682930	    -12.86515941	     20.09652792	     90.00000001	      0.00000000	      0.00000000
      0.48000000	     -3.18444159	     -1.65934542	     -4.24410028	     -0.38886931	      0.93284275	     -0.22520996	     -9.83742075	      3.55721325	     -3.45183584	     26.63050259	     -2.91594692	      0.46478995	     12.63348556	     -4.27785059	     -8.91825475	     33.52786228	     -1.86650433	     -9.16243471	     20.55500657	     -2.71523746	      0.35875254	     -4.06932867	     -9.87410026	     -8.91825475	     -8.37360029	     -0.07303321	     10.03803027	      1.61874947	     -9.37664537	      0.70722735	     42.50259573	     90.00000001	      0.00000000	      0.00000000	     -4.35594179	     -8.51156877	    -13.74364022	     18.93799952	     90.00000001	      0.00000000	      0.00000000
      0.49000000	     -3.10551018	     -0.94589253	     -4.16136549	     -0.37253992	      0.93348081	     -0.22598615	     -9.17358719	      2.55268967	     -3.76833988	     29.54150607	     -2.92762734	      0.51559655	     10.18918274	     -5.31977417	     -8.89481951	     33.29223504	     -0.86205513	     -8.99955081	     22.03256655	     -3.00199061	      0.38454083	     -4.60738433	    -10.49575275	     -8.89481951	     -8.29113207	     -1.09507299	      9.59840057	      1.31427531	     -9.04987521	      0.67294366	     42.12759587	     90.00000001	      0.00000000	      0.00000000	     -4.74738382	     -8.71343415	    -14.01996027	     18.52269859	     90.00000001	      0.00000000	      0.00000000
